Coordinates
version=1
nRows=10
nColumns=22
inDegrees=yes

Units are S.I. units (second, meters, Newtons, ...)
If the header above contains a line with 'inDegrees', this indicates whether rotational values are in degrees (yes) or radians (no).

endheader
time	pelvis_tilt	pelvis_list	pelvis_rotation	pelvis_tx	pelvis_ty	pelvis_tz	hip_flexion_r	hip_adduction_r	hip_rotation_r	knee_angle_r	ankle_angle_r	subtalar_angle_r	hip_flexion_l	hip_adduction_l	hip_rotation_l	knee_angle_l	ankle_angle_l	subtalar_angle_l	lumbar_extension	lumbar_bending	lumbar_rotation
      2.58000000	      0.55091747	     -8.67540773	     38.24410880	      0.10934532	      0.87295906	     -0.09146611	      9.39903530	     -3.32718966	      2.56744846	    -58.23138369	    -11.96621876	     20.75984152	     23.35835151	     -8.22798093	    -24.41685437	    -32.57708561	     16.87195622	     -8.14951382	     -0.13948848	     -1.34076162	     19.53836661
      2.59000000	      0.74674249	     -8.65785073	     39.46713999	      0.11183097	      0.87377390	     -0.09766815	     10.22692378	     -3.45510924	      3.03917409	    -58.93314152	    -11.09382590	     20.80099311	     22.75719569	     -7.74146425	    -23.69096160	    -32.09868509	     17.01280835	     -7.88174913	     -0.29184897	     -1.24433873	     18.99391505
      2.60000000	      0.93033967	     -8.60488051	     40.72805377	      0.11423270	      0.87464027	     -0.10391774	     10.98776276	     -3.63317961	      3.47015106	    -59.44177670	    -10.23294033	     20.83008146	     22.11224838	     -7.21306542	    -22.93157865	    -31.55870265	     17.11563361	     -7.62062805	     -0.43734835	     -1.17762742	     18.41424851
      2.61000000	      1.10422884	     -8.51820823	     42.01849640	      0.11658033	      0.87556027	     -0.11019998	     11.67226767	     -3.84453046	      3.88249241	    -59.75032202	     -9.39251976	     20.86832617	     21.41783700	     -6.65633802	    -22.15224977	    -30.96083204	     17.18593859	     -7.37920652	     -0.57768970	     -1.13898526	     17.80286850
      2.62000000	      1.27101794	     -8.38934993	     43.32376350	      0.11888464	      0.87654009	     -0.11647522	     12.27324330	     -4.07754195	      4.30745664	    -59.86389050	     -8.55678685	     20.93678739	     20.66350115	     -6.07677907	    -21.35943934	    -30.31046794	     17.22471459	     -7.13895116	     -0.72807165	     -1.13590107	     17.18526469
      2.63000000	      1.42391454	     -8.24539658	     44.64307402	      0.12115364	      0.87754024	     -0.12273549	     12.80911547	     -4.30800800	      4.74344392	    -59.77722865	     -7.69056118	     21.01983915	     19.87257668	     -5.49705533	    -20.56748122	    -29.60725647	     17.24221980	     -6.92170899	     -0.86269979	     -1.14874458	     16.54112604
      2.64000000	      1.56582812	     -8.08755097	     45.97001892	      0.12335200	      0.87853352	     -0.12892173	     13.29067391	     -4.52357962	      5.20891687	    -59.51220602	     -6.74686198	     21.09011737	     19.06173862	     -4.92633779	    -19.75931583	    -28.88173995	     17.24214288	     -6.70909538	     -0.99527550	     -1.17714003	     15.89333961
      2.65000000	      1.70055121	     -7.93319566	     47.30451553	      0.12542762	      0.87947842	     -0.13495751	     13.73930508	     -4.69935251	      5.71473036	    -59.08192414	     -5.71173534	     21.10615509	     18.26263409	     -4.38591713	    -18.92256284	    -28.16141757	     17.22884368	     -6.48318686	     -1.12994879	     -1.20351210	     15.24147688
      2.66000000	      1.81742949	     -7.86574503	     48.69150191	      0.12728528	      0.88021419	     -0.14085266	     14.23677626	     -4.81562022	      6.17072796	    -58.50981292	     -4.57242024	     21.02685882	     17.58437030	     -3.91799723	    -18.02490454	    -27.48640103	     17.23267857	     -6.28996176	     -1.19014354	     -1.16720038	     14.51858251
      2.67000000	      1.93885651	     -7.86043788	     50.15490332	      0.12881839	      0.88078279	     -0.14656903	     14.74388373	     -4.87982644	      6.57649793	    -57.77931272	     -3.40264040	     20.79041474	     17.01925045	     -3.50297017	    -16.97572586	    -26.88239832	     17.23631379	     -6.06138482	     -1.22796901	     -1.07487211	     13.74569927
